<svg xmlns="http://www.w3.org/2000/svg" width="72" height="84" viewBox="0 0 72 84"><path d="M31 15V8a5 5 0 0 1 10 0v7" fill="none" stroke="#b4bab6" stroke-width="3" stroke-linecap="round"/><path d="M32 14h8v8h-8z" fill="#4e6f66"/><path d="M12 29Q12 21 20 21h32q8 0 8 8v39q0 9-9 9H21q-9 0-9-9Z" fill="#e8b577" stroke="#183c35" stroke-width="2"/><path d="M12 63h48v10H12Z" fill="#81cbd1"/><path d="M15 57h42M20 57c4-17 28-17 32 0M20 57V38m32 19V38" fill="none" stroke="#183c35" stroke-width="2.5"/><g fill="#e8b577"><circle cx="24" cy="53" r="2"/><circle cx="31" cy="47" r="2"/><circle cx="41" cy="47" r="2"/><circle cx="48" cy="53" r="2"/></g></svg>
