<svg xmlns="http://www.w3.org/2000/svg" width="72" height="84" viewBox="0 0 72 84"><path d="M31 15V8a5 5 0 0 1 10 0v7" fill="none" stroke="#b4bab6" stroke-width="3" stroke-linecap="round"/><path d="M32 14h8v8h-8z" fill="#4e6f66"/><circle cx="36" cy="49" r="28" fill="#8cb7d7" stroke="#183c35" stroke-width="2"/><circle cx="36" cy="49" r="23" fill="#fff8e8" opacity=".9"/><rect x="25" y="38" width="22" height="22" rx="5" fill="#8cb7d7" stroke="#183c35" stroke-width="2"/><circle cx="36" cy="49" r="5" fill="#183c35"/><path d="M36 27v9m0 26v9M14 49h9m26 0h9M21 34l6 6m18 18 6 6M21 64l6-6m18-18 6-6" stroke="#cb855e" stroke-width="2"/></svg>
