<svg xmlns="http://www.w3.org/2000/svg" width="72" height="84" viewBox="0 0 72 84"><path d="M31 15V8a5 5 0 0 1 10 0v7" fill="none" stroke="#b4bab6" stroke-width="3" stroke-linecap="round"/><path d="M32 14h8v8h-8z" fill="#4e6f66"/><path d="M12 29Q12 21 20 21h32q8 0 8 8v39q0 9-9 9H21q-9 0-9-9Z" fill="#d3927b" stroke="#183c35" stroke-width="2"/><path d="M12 67h48v10H12Z" fill="#d3927b"/><path d="M17 66c2-24 11-32 21-31 12 0 18 12 19 31H46c-1-13-4-20-10-20-5 0-8 7-9 20Z" fill="#c87855" stroke="#183c35" stroke-width="2"/><circle cx="53" cy="34" r="7" fill="#e8b577"/></svg>
