<svg xmlns="http://www.w3.org/2000/svg" width="72" height="84" viewBox="0 0 72 84"><path d="M31 15V8a5 5 0 0 1 10 0v7" fill="none" stroke="#b4bab6" stroke-width="3" stroke-linecap="round"/><path d="M32 14h8v8h-8z" fill="#4e6f66"/><path d="M12 29Q12 21 20 21h32q8 0 8 8v39q0 9-9 9H21q-9 0-9-9Z" fill="#e8b577" stroke="#183c35" stroke-width="2"/><circle cx="49" cy="37" r="10" fill="#e8b577"/><path d="m12 68 17-27 9 13 8-9 14 23Z" fill="#72958a" stroke="#183c35" stroke-width="2"/><path d="m23 52 6-11 6 9" fill="#fff8e8"/><path d="M12 68h48" stroke="#4e6f66" stroke-width="2"/></svg>
