<svg xmlns="http://www.w3.org/2000/svg" width="72" height="84" viewBox="0 0 72 84"><path d="M31 15V8a5 5 0 0 1 10 0v7" fill="none" stroke="#b4bab6" stroke-width="3" stroke-linecap="round"/><path d="M32 14h8v8h-8z" fill="#4e6f66"/><path d="M12 29Q12 21 20 21h32q8 0 8 8v39q0 9-9 9H21q-9 0-9-9Z" fill="#8db7a6" stroke="#183c35" stroke-width="2"/><path d="M18 70V42m18 28V31m18 39V39" stroke="#744d3b" stroke-width="5"/><g fill="#4f8065" stroke="#183c35" stroke-width="1.5"><path d="M8 49 18 27l10 22Z"/><path d="M22 42 36 22l14 20Z"/><path d="M43 47 54 26l11 21Z"/></g><path d="M12 70h48" stroke="#4e6f66" stroke-width="3"/></svg>
