<svg xmlns="http://www.w3.org/2000/svg" width="72" height="84" viewBox="0 0 72 84"><path d="M31 15V8a5 5 0 0 1 10 0v7" fill="none" stroke="#b4bab6" stroke-width="3" stroke-linecap="round"/><path d="M32 14h8v8h-8z" fill="#4e6f66"/><circle cx="36" cy="49" r="28" fill="#d69caf" stroke="#183c35" stroke-width="2"/><circle cx="36" cy="49" r="23" fill="#fff8e8" opacity=".9"/><path d="M20 50c4-14 18-17 23-7 5 10-7 17-14 12-7-6 2-17 12-13 9 4 11 15 4 22" fill="none" stroke="#d69caf" stroke-width="3" stroke-linecap="round"/><path d="M52 31v14m-6-11 12 7m-12 0 12-7" stroke="#cb855e" stroke-width="2.5"/></svg>
