<svg xmlns="http://www.w3.org/2000/svg" width="72" height="84" viewBox="0 0 72 84">
  <path d="M31 15V8a5 5 0 0 1 10 0v7" fill="none" stroke="#aab3ba" stroke-width="3" stroke-linecap="round"/><path d="M36 14v61" stroke="#559b77" stroke-width="3"/>
  <path d="M36 57c-7-16-4-29 0-40m0 18-9-7m9 14 10-8m-10 15-10-7" fill="none" stroke="#559b77" stroke-width="2"/>
  <g fill="#b5a0d2" stroke="#68558a" stroke-width="1.3"><ellipse cx="33" cy="20" rx="5" ry="3"/><ellipse cx="39" cy="24" rx="5" ry="3"/><ellipse cx="31" cy="28" rx="5" ry="3"/><ellipse cx="40" cy="32" rx="5" ry="3"/><ellipse cx="31" cy="36" rx="5" ry="3"/><ellipse cx="41" cy="40" rx="5" ry="3"/><ellipse cx="32" cy="44" rx="5" ry="3"/><ellipse cx="39" cy="48" rx="5" ry="3"/></g>
  <path d="M36 63c-9-8-15-4-13 3 5 4 9 2 13-3Zm0 5c8-8 14-4 12 3-4 3-8 2-12-3Z" fill="#75c7aa" stroke="#3c7359" stroke-width="1.7"/>
</svg>
